<svg width="50" height="50" viewBox="0 0 50 50" fill="none" xmlns="http://www.w3.org/2000/svg">
<g id="Icon / Regular/CloudCheck">
<path id="Vector" d="M15.625 25C15.625 21.9097 16.5414 18.8887 18.2583 16.3192C19.9752 13.7497 22.4155 11.747 25.2706 10.5644C28.1257 9.38177 31.2673 9.07234 34.2983 9.67524C37.3292 10.2781 40.1134 11.7663 42.2985 13.9515C44.4837 16.1367 45.9719 18.9208 46.5748 21.9517C47.1777 24.9827 46.8682 28.1243 45.6856 30.9794C44.503 33.8345 42.5003 36.2748 39.9308 37.9917C37.3613 39.7086 34.3403 40.625 31.25 40.625H14.0625C11.1617 40.625 8.3797 39.4727 6.32852 37.4215C4.27734 35.3703 3.125 32.5883 3.125 29.6875C3.125 26.7867 4.27734 24.0047 6.32852 21.9535C8.3797 19.9023 11.1617 18.75 14.0625 18.75C14.9776 18.7497 15.8893 18.8612 16.7773 19.082" stroke="#2563EB" stroke-width="2" stroke-linecap="round" stroke-linejoin="round"/>
<path id="Vector_2" d="M37.5 22.6562L28.125 32.0312L23.4375 27.3438" stroke="#2563EB" stroke-width="2" stroke-linecap="round" stroke-linejoin="round"/>
</g>
</svg>
