<svg width="50" height="50" viewBox="0 0 50 50" fill="none" xmlns="http://www.w3.org/2000/svg">
<g id="&#240;&#159;&#146;&#156; Icon / Regular/Files">
<path id="Vector" d="M32.8125 43.75H10.9375C10.5231 43.75 10.1257 43.5854 9.83265 43.2924C9.53962 42.9993 9.375 42.6019 9.375 42.1875V14.0625C9.375 13.6481 9.53962 13.2507 9.83265 12.9576C10.1257 12.6646 10.5231 12.5 10.9375 12.5H26.5625L34.375 20.3125V42.1875C34.375 42.6019 34.2104 42.9993 33.9174 43.2924C33.6243 43.5854 33.2269 43.75 32.8125 43.75Z" stroke="#2563EB" stroke-width="2" stroke-linecap="round" stroke-linejoin="round"/>
<path id="Vector_2" d="M15.625 12.5V7.8125C15.625 7.3981 15.7896 7.00067 16.0826 6.70765C16.3757 6.41462 16.7731 6.25 17.1875 6.25H32.8125L40.625 14.0625V35.9375C40.625 36.3519 40.4604 36.7493 40.1674 37.0424C39.8743 37.3354 39.4769 37.5 39.0625 37.5H34.375" stroke="#2563EB" stroke-width="2" stroke-linecap="round" stroke-linejoin="round"/>
<path id="Vector_3" d="M17.1875 29.6875H26.5625" stroke="#2563EB" stroke-width="2" stroke-linecap="round" stroke-linejoin="round"/>
<path id="Vector_4" d="M17.1875 35.9375H26.5625" stroke="#2563EB" stroke-width="2" stroke-linecap="round" stroke-linejoin="round"/>
</g>
</svg>
