<svg width="50" height="50" viewBox="0 0 50 50" fill="none" xmlns="http://www.w3.org/2000/svg">
<g id="Icon / Regular/Graph">
<path id="Vector" d="M25 29.6875C27.5888 29.6875 29.6875 27.5888 29.6875 25C29.6875 22.4112 27.5888 20.3125 25 20.3125C22.4112 20.3125 20.3125 22.4112 20.3125 25C20.3125 27.5888 22.4112 29.6875 25 29.6875Z" stroke="#2563EB" stroke-width="2" stroke-linecap="round" stroke-linejoin="round"/>
<path id="Vector_2" d="M18.75 15.625C21.3388 15.625 23.4375 13.5263 23.4375 10.9375C23.4375 8.34867 21.3388 6.25 18.75 6.25C16.1612 6.25 14.0625 8.34867 14.0625 10.9375C14.0625 13.5263 16.1612 15.625 18.75 15.625Z" stroke="#2563EB" stroke-width="2" stroke-linecap="round" stroke-linejoin="round"/>
<path id="Vector_3" d="M39.0625 25C41.6513 25 43.75 22.9013 43.75 20.3125C43.75 17.7237 41.6513 15.625 39.0625 15.625C36.4737 15.625 34.375 17.7237 34.375 20.3125C34.375 22.9013 36.4737 25 39.0625 25Z" stroke="#2563EB" stroke-width="2" stroke-linecap="round" stroke-linejoin="round"/>
<path id="Vector_4" d="M39.0625 40.625C41.6513 40.625 43.75 38.5263 43.75 35.9375C43.75 33.3487 41.6513 31.25 39.0625 31.25C36.4737 31.25 34.375 33.3487 34.375 35.9375C34.375 38.5263 36.4737 40.625 39.0625 40.625Z" stroke="#2563EB" stroke-width="2" stroke-linecap="round" stroke-linejoin="round"/>
<path id="Vector_5" d="M10.9375 42.1875C13.5263 42.1875 15.625 40.0888 15.625 37.5C15.625 34.9112 13.5263 32.8125 10.9375 32.8125C8.34867 32.8125 6.25 34.9112 6.25 37.5C6.25 40.0888 8.34867 42.1875 10.9375 42.1875Z" stroke="#2563EB" stroke-width="2" stroke-linecap="round" stroke-linejoin="round"/>
<path id="Vector_6" d="M23.105 20.723L20.644 15.2152" stroke="#2563EB" stroke-width="2" stroke-linecap="round" stroke-linejoin="round"/>
<path id="Vector_7" d="M34.6099 21.7965L29.4536 23.5153" stroke="#2563EB" stroke-width="2" stroke-linecap="round" stroke-linejoin="round"/>
<path id="Vector_8" d="M35.3716 33.0664L28.6919 27.8711" stroke="#2563EB" stroke-width="2" stroke-linecap="round" stroke-linejoin="round"/>
<path id="Vector_9" d="M21.5044 28.1058L14.4341 34.3949" stroke="#2563EB" stroke-width="2" stroke-linecap="round" stroke-linejoin="round"/>
</g>
</svg>
